<?xml version="1.0" standalone="no"?>
<!DOCTYPE svg PUBLIC "-//W3C//DTD SVG 20010904//EN"
 "http://www.w3.org/TR/2001/REC-SVG-20010904/DTD/svg10.dtd">
<svg version="1.0" xmlns="http://www.w3.org/2000/svg"
 width="1024.000000pt" height="1024.000000pt" viewBox="0 0 1024.000000 1024.000000"
 preserveAspectRatio="xMidYMid meet">

<g transform="translate(0.000000,1024.000000) scale(0.100000,-0.100000)"
fill="#000000" stroke="none">
<path d="M4635 8559 c-506 -38 -884 -129 -1213 -291 -420 -207 -722 -540 -851
-937 -75 -232 -96 -395 -95 -746 0 -453 54 -811 200 -1344 143 -521 356 -1031
552 -1326 96 -143 148 -199 222 -234 l55 -26 1394 -3 c1221 -2 1402 0 1454 13
75 19 105 41 164 118 26 34 116 143 198 242 520 621 723 905 890 1240 295 595
310 1106 43 1492 -137 199 -380 334 -553 308 -64 -9 -96 -42 -125 -130 -44
-138 -137 -283 -244 -383 -33 -31 -46 -51 -46 -71 0 -51 -40 -184 -79 -265
-22 -45 -78 -143 -125 -219 -177 -284 -230 -431 -255 -705 -7 -76 -12 -97 -31
-117 -32 -34 -92 -34 -125 0 -22 21 -25 33 -25 98 0 215 83 454 255 737 64
104 149 270 142 276 -2 2 -35 -10 -73 -27 -179 -82 -400 -140 -639 -169 -132
-16 -485 -28 -599 -20 -87 6 -101 9 -117 29 -27 33 -25 92 4 118 21 20 36 21
337 26 320 5 417 14 606 56 133 29 236 66 354 127 284 147 479 374 567 661 25
81 27 102 27 258 0 199 -16 277 -90 434 -75 159 -176 285 -319 396 -263 206
-599 325 -1045 370 -186 19 -649 27 -815 14z"/>
<path d="M3466 3408 c-56 -15 -120 -82 -134 -140 -16 -64 -17 -1016 -1 -1073
15 -54 91 -129 146 -144 30 -8 443 -11 1480 -9 l1438 3 45 25 c65 37 100 92
111 176 4 38 8 281 6 539 -2 526 0 509 -75 577 -22 20 -58 41 -79 47 -52 15
-2882 13 -2937 -1z"/>
<path d="M3680 1855 c0 -4 9 -22 20 -40 23 -37 65 -71 130 -106 l45 -24 1055
0 1055 0 56 27 c51 25 149 111 149 130 0 4 -558 8 -1239 8 -682 0 -1246 3
-1255 6 -9 3 -16 3 -16 -1z"/>
</g>
</svg>
